# xmcd
#
# Track frame offsets: 
#        150
#        27495
#        48857
#        75902
#        101775
#        124455
#        149890
#        170225
#        193760
#        220122
#
# Disc length: 3232 seconds
#
# Revision: 0
# Processed by: cddbd v1.5.2PL0 Copyright (c) Steve Scherf et al.
# Submitted via: ExactAudioCopy v1.0b3
#
DISCID=980c9e0a
DTITLE=Various Artist - Nho Nguoi Yeu
DYEAR=2000
DGENRE=
TTITLE0=Nhu Quynh, Truong Vu - Nho nguoi yeu
TTITLE1=Phi Nhung - Tui phan
TTITLE2=Truong Vu - Chia xa
TTITLE3=Tuong Nguyen, Hoang Lan - Nhat ky doi toi
TTITLE4=Manh Quynh - Nang yeu hoa tim
TTITLE5=Nhu Quynh - Tam anh ngay xua
TTITLE6=Hoang Lan - Hoa tim doi cho
TTITLE7=Nhu Quynh, Truong Vu - Dep long nguoi yeu
TTITLE8=Dang Truong Phat - Vay tay chao
TTITLE9=The Son, Hoang Lan - Yeu mot minh
EXTD=
EXTT0=
EXTT1=
EXTT2=
EXTT3=
EXTT4=
EXTT5=
EXTT6=
EXTT7=
EXTT8=
EXTT9=
PLAYORDER=
